<?xml version="1.0" encoding="UTF-8"?>
<svg id="Layer_1" data-name="Layer 1" xmlns="http://www.w3.org/2000/svg" viewBox="0 0 5000 5000">
  <defs>
    <style>
      .cls-1 {
        fill-rule: evenodd;
      }

      .cls-1, .cls-2 {
        fill: #f15a29;
      }
    </style>
  </defs>
  <path class="cls-1" d="M3356.85,978.17c99.43-18.98,200.72-26.23,301.81-21.71,105.68,1.85,215.66,9.16,289.55,94.07,129.18,148.48,92.17,376.17,96.29,559.77h339.94V574.84c-114.01,52.74-238.61,78.47-364.14,75.23-365.62,9.76-735.12-44.33-1091.35,65.98-381.03,117.99-696.21,370.73-907.15,691.7h453.39v851.45h-738.9c-8.62,144.01,1.37,290.22,31.95,435.22,4.79,22.7,10.05,45.3,15.76,67.81h835.12c-129.85-664.1,21.65-1629.36,737.72-1784.06Z"/>
  <path class="cls-1" d="M3264.87,2271.57v305.47c117.62-.05,230.42,46.68,313.57,129.88,83.19,83.15,129.92,195.95,129.92,313.56v673.36c-75.28,4.76-150.79,2.64-225.65-6.34-65.06-7.05-126.61-20.08-184.63-38.52v354.84c180.65,2.7,363.68-11.66,542.57-8.16,182.02,3.56,374.73-14.53,543.71,62.92l-4.03-1019.59c0-255.12,206.82-461.95,462-461.95v-305.47h-1577.45Z"/>
  <path class="cls-1" d="M3298.07,3648.97v-886.74h-678.93c15.59,79.73,35.23,155.12,58.44,224.24,106.5,317.12,314.39,565.21,620.49,662.5Z"/>
  <path class="cls-1" d="M1784.01,2762.23h-188.82v1702.88h1702.88v-461.29c-115.21-1.72-229.45-10.38-341.03-35.05-585.44-129.42-1027.62-633.75-1173.03-1206.53Z"/>
  <path class="cls-1" d="M1623.75,1407.75v851.45h112.55c18.22-304.46,119.63-599.05,285.51-851.45h-398.05Z"/>
  <rect class="cls-2" x="157.68" y="1140.19" width="572.26" height="572.25"/>
  <rect class="cls-2" x="474.79" y="1985.55" width="961.56" height="961.59"/>
  <rect class="cls-2" x="1315.45" y="652.12" width="501.25" height="501.25"/>
  <rect class="cls-2" x="459.65" y="534.9" width="250.62" height="250.61"/>
  <rect class="cls-2" x="1113.09" y="1378.46" width="250.64" height="250.62"/>
</svg>